<svg width="200" height="200" viewBox="0 0 100 100" fill="none" xmlns="http://www.w3.org/2000/svg">
  <circle cx="30" cy="15" r="6" fill="#F59E0B"/>
  <circle cx="50" cy="15" r="6" fill="#F59E0B" opacity="0.7"/>
  <circle cx="70" cy="15" r="6" fill="#F59E0B" opacity="0.4"/>
  
  <rect x="20" y="30" width="60" height="12" rx="6" fill="#3B82F6"/>
  
  <path d="M30 42 L30 60" stroke="#F59E0B" stroke-width="3" stroke-linecap="round" stroke-dasharray="3 3"/>
  <path d="M50 42 L50 60" stroke="#F59E0B" stroke-width="3" stroke-linecap="round" stroke-dasharray="3 3"/>
  <path d="M70 42 L70 60" stroke="#F59E0B" stroke-width="3" stroke-linecap="round" stroke-dasharray="3 3"/>
  
  <rect x="18" y="65" width="24" height="24" rx="6" fill="#4ADE80"/>
  <circle cx="30" cy="77" r="3" fill="white"/> 
  
  <rect x="38" y="65" width="24" height="24" rx="6" fill="#2DD4BF"/>
  <circle cx="47" cy="77" r="3" fill="white"/> <circle cx="53" cy="77" r="3" fill="white"/>
  
  <rect x="58" y="65" width="24" height="24" rx="6" fill="#A78BFA"/>
  <circle cx="66" cy="77" r="3" fill="white"/> <circle cx="70" cy="77" r="3" fill="white"/> <circle cx="74" cy="77" r="3" fill="white"/>
</svg>
