<svg width="200" height="200" viewBox="0 0 100 100" fill="none" xmlns="http://www.w3.org/2000/svg">
  <g transform="translate(25, 20)">
    <rect x="0" y="0" width="10" height="6" rx="2" fill="#F59E0B"/>
    <rect x="2" y="6" width="6" height="8" fill="#F59E0B"/>
    <rect x="2" y="14" width="2" height="4" fill="#F59E0B"/>
    <rect x="6" y="14" width="2" height="2" fill="#F59E0B"/>
  </g>
  <g transform="translate(65, 20)">
    <rect x="0" y="0" width="10" height="6" rx="2" fill="#F59E0B"/>
    <rect x="2" y="6" width="6" height="8" fill="#F59E0B"/>
    <rect x="2" y="14" width="2" height="2" fill="#F59E0B"/>
    <rect x="6" y="14" width="2" height="4" fill="#F59E0B"/>
  </g>

  <path d="M30 45 L30 55" stroke="#9CA3AF" stroke-width="2" stroke-linecap="round"/>
  <path d="M70 45 L70 55" stroke="#9CA3AF" stroke-width="2" stroke-linecap="round"/>

  <rect x="15" y="60" width="30" height="30" rx="6" fill="#3B82F6"/>
  <path d="M30 60 L30 68 M28 68 L32 68 L32 76 L28 76 L28 78 L32 78 L32 80 L28 80 L28 68" stroke="white" stroke-width="2" stroke-linecap="round" fill="none"/>

  <rect x="55" y="60" width="30" height="30" rx="6" fill="#8B5CF6"/>
  <path d="M70 60 L70 68 M68 68 L72 68 L72 78 L68 78 L68 80 L72 80 L72 76 L68 76 L68 68" stroke="white" stroke-width="2" stroke-linecap="round" fill="none"/>

  <path d="M30 38 L30 60" stroke="#F59E0B" stroke-width="2" stroke-dasharray="2 2" opacity="0.5"/>
  <path d="M70 38 L70 60" stroke="#F59E0B" stroke-width="2" stroke-dasharray="2 2" opacity="0.5"/>
</svg>
