<?xml version="1.0" standalone="no"?><!DOCTYPE svg PUBLIC "-//W3C//DTD SVG 1.1//EN" "http://www.w3.org/Graphics/SVG/1.1/DTD/svg11.dtd"><svg t="1754223124013" class="icon" viewBox="0 0 1473 1024" version="1.1" xmlns="http://www.w3.org/2000/svg" p-id="16962" width="184.125" height="128" xmlns:xlink="http://www.w3.org/1999/xlink"><path d="M726.545043 757.978885h235.880546c42.476478 0 83.554553 15.182656 115.817697 42.826078l227.914645 195.476701c15.257571 13.085052 37.582069 15.332485 54.562672 4.569779 237.129119-150.053589-50.492321-742.327015-107.502197-849.879154-6.043097-11.386992-16.006715-73.316248-28.142851-77.711228L1033.41949 3.565677a56.135874 56.135874 0 0 0-50.367464 6.043097c-0.024971 0-54.03827 34.535549-66.149435 34.535548H542.979736c-12.111165 0-72.941676-34.535549-72.941676-34.535548a56.185817 56.185817 0 0 0-50.392435-6.043097L227.98956 73.261061c-12.136136 4.394979-22.074783 66.324236-28.11788 77.711228-57.009876 107.55214-344.631316 699.825565-107.502197 849.879154 16.955631 10.762705 39.280129 8.515273 54.5377-4.569779l227.939617-195.476701a177.896782 177.896782 0 0 1 115.817697-42.826078h235.880546" fill="#38454F" p-id="16963"></path><path d="M1018.486548 533.235617a99.885897 99.885897 0 1 1-199.771794 0 99.885897 99.885897 0 0 1 199.771794 0M444.142641 283.520874a99.885897 99.885897 0 1 1-199.771794 0 99.885897 99.885897 0 0 1 199.771794 0" fill="#546A79" p-id="16964"></path><path d="M1143.343919 183.634978a49.942948 49.942948 0 1 1-99.910868-0.024972 49.942948 49.942948 0 0 1 99.910868 0.024972" fill="#ECBA16" p-id="16965"></path><path d="M1043.458022 283.520874a49.942948 49.942948 0 1 1-99.910868-0.024971 49.942948 49.942948 0 0 1 99.910868 0.024971" fill="#7383BF" p-id="16966"></path><path d="M1243.229816 283.520874a49.942948 49.942948 0 1 1-99.910868-0.024971 49.942948 49.942948 0 0 1 99.910868 0.024971" fill="#D75A4A" p-id="16967"></path><path d="M1143.343919 383.406771a49.942948 49.942948 0 1 1-99.910868-0.024971 49.942948 49.942948 0 0 1 99.910868 0.024971" fill="#61B972" p-id="16968"></path><path d="M793.74328 69.864941c0-4.819495-0.474458-9.48916-1.34846-14.033969a26.969192 26.969192 0 0 0-5.368866-11.68665h-61.929257c-2.097604 0.1748-4.095322 0.749144-6.26784 0.749145s-4.170236-0.574344-6.26784-0.749145h-62.153999a24.971474 24.971474 0 0 0-4.794523 9.98859 74.664708 74.664708 0 0 0 0 31.738744 75.288995 75.288995 0 0 0 60.031424 57.783991 74.989337 74.989337 0 0 0 88.099361-73.790706" fill="#B0B6BB" p-id="16969"></path><path d="M681.371646 474.627567H599.315382v-82.056265a17.829633 17.829633 0 0 0-17.829633-17.829632h-64.226632a17.829633 17.829633 0 0 0-17.829632 17.829632V474.627567h-82.056265a17.829633 17.829633 0 0 0-17.829632 17.829632v64.226632c0 9.838761 7.990872 17.829633 17.829632 17.829633H499.429485v82.056264c0 9.838761 7.990872 17.829633 17.829632 17.829633h64.226632c9.838761 0 17.829633-7.990872 17.829633-17.829633V574.513464h82.056264c9.838761 0 17.829633-7.990872 17.829633-17.829633v-64.226632a17.829633 17.829633 0 0 0-17.829633-17.829632" fill="#546A79" p-id="16970"></path></svg>